<?xml version="1.0" encoding="utf-8"?>
<!-- Generator: Adobe Illustrator 13.0.2, SVG Export Plug-In . SVG Version: 6.00 Build 14948)  -->
<!DOCTYPE svg PUBLIC "-//W3C//DTD SVG 1.1//EN" "http://www.w3.org/Graphics/SVG/1.1/DTD/svg11.dtd">
<svg version="1.1" id="Layer_1" xmlns="http://www.w3.org/2000/svg" xmlns:xlink="http://www.w3.org/1999/xlink" x="0px" y="0px"
	 width="46.965px" height="40px" viewBox="0 0 46.965 40" enable-background="new 0 0 46.965 40" xml:space="preserve">
<g>
	<g>
		<path fill="#FFFFFF" d="M44.746,32.278c0.469-0.058,0.717-0.316,0.717-0.751c0-0.529-0.322-0.786-0.982-0.786h-1.059v2.785h0.396
			v-1.213h0.494l0.01,0.015l0.766,1.198h0.426l-0.82-1.24L44.746,32.278z M44.283,31.999h-0.465v-0.941h0.59
			c0.305,0,0.65,0.05,0.65,0.448C45.059,31.962,44.711,31.999,44.283,31.999z"/>
		<path fill="#FFFFFF" d="M44.33,29.503c-1.48,0-2.639,1.157-2.639,2.635c0,1.479,1.158,2.635,2.639,2.635
			c1.477,0,2.635-1.156,2.635-2.635C46.965,30.66,45.807,29.503,44.33,29.503z M44.33,34.427c-1.262,0-2.252-0.996-2.252-2.289
			c0-1.292,0.99-2.29,2.252-2.29s2.248,0.998,2.248,2.29C46.578,33.431,45.592,34.427,44.33,34.427z"/>
	</g>
	<g>
		<path fill="#FFFFFF" d="M37.039,0H2.95C1.323,0,0,1.291,0,2.884v34.229C0,38.707,1.323,40,2.95,40h34.089
			c1.631,0,2.959-1.293,2.959-2.887V2.884C39.998,1.291,38.67,0,37.039,0z M11.865,34.084H5.927V14.996h5.938V34.084z M8.897,12.388
			c-1.905,0-3.442-1.542-3.442-3.441c0-1.899,1.537-3.44,3.442-3.44c1.898,0,3.438,1.541,3.438,3.44
			C12.336,10.846,10.795,12.388,8.897,12.388z M34.085,34.084h-5.932v-9.282c0-2.214-0.039-5.062-3.082-5.062
			c-3.088,0-3.559,2.412-3.559,4.902v9.441h-5.926V14.996h5.688v2.61h0.08c0.791-1.501,2.728-3.083,5.613-3.083
			c6.008,0,7.117,3.953,7.117,9.093V34.084z"/>
	</g>
</g>
</svg>
