<?xml version="1.0" encoding="utf-8"?>
<!-- Generator: Adobe Illustrator 13.0.2, SVG Export Plug-In . SVG Version: 6.00 Build 14948)  -->
<!DOCTYPE svg PUBLIC "-//W3C//DTD SVG 1.1//EN" "http://www.w3.org/Graphics/SVG/1.1/DTD/svg11.dtd">
<svg version="1.1" id="Layer_1" xmlns="http://www.w3.org/2000/svg" xmlns:xlink="http://www.w3.org/1999/xlink" x="0px" y="0px"
	 width="49.148px" height="40px" viewBox="0 0 49.148 40" enable-background="new 0 0 49.148 40" xml:space="preserve">
<g>
	<defs>
		<rect id="SVGID_1_" x="0.011" y="0.147" width="49.028" height="39.842"/>
	</defs>
	<clipPath id="SVGID_2_">
		<use xlink:href="#SVGID_1_"  overflow="visible"/>
	</clipPath>
	<g clip-path="url(#SVGID_2_)">
		<defs>
			<rect id="SVGID_3_" width="49.148" height="40"/>
		</defs>
		<clipPath id="SVGID_4_">
			<use xlink:href="#SVGID_3_"  overflow="visible"/>
		</clipPath>
		<path clip-path="url(#SVGID_4_)" fill="#FFFFFF" d="M15.423,40C9.741,40,4.453,38.335,0,35.479c0.787,0.094,1.588,0.141,2.4,0.141
			c4.713,0,9.051-1.608,12.495-4.307c-4.402-0.081-8.118-2.989-9.398-6.987c0.614,0.118,1.244,0.181,1.893,0.181
			c0.917,0,1.807-0.122,2.651-0.353C5.438,23.23,1.97,19.164,1.97,14.289c0-0.042,0-0.084,0.001-0.126
			c1.356,0.754,2.908,1.206,4.557,1.258c-2.7-1.804-4.476-4.883-4.476-8.374c0-1.844,0.496-3.572,1.362-5.058
			C8.376,8.076,15.79,12.081,24.151,12.501c-0.171-0.736-0.26-1.504-0.26-2.293c0-5.556,4.505-10.061,10.062-10.061
			c2.894,0,5.508,1.222,7.343,3.177c2.292-0.451,4.445-1.289,6.389-2.441c-0.751,2.349-2.346,4.321-4.423,5.566
			c2.035-0.243,3.974-0.784,5.778-1.584c-1.35,2.018-3.055,3.79-5.021,5.208c0.02,0.431,0.029,0.865,0.029,1.301
			C44.048,24.67,33.928,40,15.423,40"/>
	</g>
</g>
</svg>
