<svg xmlns="http://www.w3.org/2000/svg" width="46.965" height="40" viewBox="0 0 46.965 40"><g fill="#fff"><path d="M44.746 32.278c.47-.058.717-.316.717-.75 0-.53-.322-.787-.982-.787h-1.058v2.786h.396v-1.213h.494l.01.015.766 1.198h.426l-.82-1.24.052-.008zm-.463-.28h-.465v-.94h.59c.305 0 .65.05.65.448 0 .456-.347.493-.775.493zM44.33 29.503c-1.48 0-2.64 1.157-2.64 2.635 0 1.48 1.16 2.635 2.64 2.635 1.477 0 2.635-1.156 2.635-2.635 0-1.478-1.158-2.635-2.635-2.635zm0 4.924c-1.262 0-2.252-.996-2.252-2.29 0-1.29.99-2.29 2.252-2.29s2.248 1 2.248 2.29c0 1.294-.986 2.29-2.248 2.29z"/></g><path fill="#fff" d="M37.04 0H2.95C1.323 0 0 1.29 0 2.884v34.23C0 38.706 1.323 40 2.95 40h34.09c1.63 0 2.958-1.293 2.958-2.887V2.883C39.998 1.292 38.67 0 37.038 0zM11.864 34.084H5.927V14.996h5.938v19.088zM8.897 12.388c-1.905 0-3.442-1.542-3.442-3.44 0-1.9 1.537-3.44 3.442-3.44 1.898 0 3.438 1.54 3.438 3.44 0 1.898-1.54 3.44-3.438 3.44zm25.188 21.696h-5.932v-9.282c0-2.214-.04-5.062-3.082-5.062-3.087 0-3.558 2.412-3.558 4.902v9.44h-5.926V14.997h5.688v2.61h.08c.79-1.5 2.728-3.083 5.613-3.083 6.008 0 7.117 3.953 7.117 9.093v10.468z"/></svg>