<svg xmlns="http://www.w3.org/2000/svg" xmlns:xlink="http://www.w3.org/1999/xlink" width="49.148" height="40" viewBox="0 0 49.148 40"><defs><path id="a" d="M.01.147h49.03V39.99H.01z"/></defs><clipPath id="b"><use xlink:href="#a" overflow="visible"/></clipPath><g clip-path="url(#b)"><defs><path id="c" d="M0 0h49.148v40H0z"/></defs><clipPath id="d"><use xlink:href="#c" overflow="visible"/></clipPath><path clip-path="url(#d)" fill="#fff" d="M15.423 40C9.74 40 4.453 38.335 0 35.48c.787.093 1.588.14 2.4.14 4.713 0 9.05-1.608 12.495-4.307-4.402-.08-8.118-2.99-9.398-6.987.614.118 1.244.18 1.893.18.917 0 1.807-.12 2.65-.352-4.602-.924-8.07-4.99-8.07-9.865v-.127c1.357.754 2.91 1.206 4.558 1.258-2.7-1.803-4.476-4.882-4.476-8.373 0-1.844.496-3.572 1.362-5.058C8.376 8.075 15.79 12.08 24.15 12.5c-.17-.735-.26-1.503-.26-2.292 0-5.556 4.506-10.06 10.063-10.06 2.894 0 5.508 1.22 7.343 3.176 2.292-.45 4.445-1.29 6.39-2.44-.752 2.348-2.347 4.32-4.424 5.565 2.035-.244 3.974-.785 5.778-1.585-1.35 2.018-3.055 3.79-5.02 5.208.02.43.028.865.028 1.3C44.048 24.67 33.928 40 15.423 40"/></g></svg>